<?xml version="1.0" standalone="no"?>
<!DOCTYPE svg PUBLIC "-//W3C//DTD SVG 20010904//EN"
 "http://www.w3.org/TR/2001/REC-SVG-20010904/DTD/svg10.dtd">
<svg version="1.0" xmlns="http://www.w3.org/2000/svg"
 width="128.000000pt" height="50.000000pt" viewBox="0 0 128.000000 50.000000"
 preserveAspectRatio="xMidYMid meet">

<g transform="translate(0.000000,50.000000) scale(0.100000,-0.100000)"
fill="#000000" stroke="none">
<path d="M0 255 l0 -245 640 0 640 0 0 245 0 245 -640 0 -640 0 0 -245z m1240
0 l0 -205 -600 0 -600 0 0 205 0 205 600 0 600 0 0 -205z"/>
<path d="M166 368 c-14 -62 -46 -232 -46 -239 0 -5 8 -9 19 -9 13 0 20 9 25
30 4 24 11 30 31 30 20 0 27 -6 32 -30 4 -21 11 -30 24 -30 23 0 23 -7 -1 120
-29 155 -27 150 -55 150 -17 0 -26 -7 -29 -22z m43 -125 c1 -14 -5 -23 -14
-23 -17 0 -18 12 -8 61 7 33 7 33 14 9 4 -14 7 -35 8 -47z"/>
<path d="M320 255 l0 -135 55 0 c48 0 55 2 55 20 0 16 -7 20 -35 20 l-35 0 0
115 c0 108 -1 115 -20 115 -19 0 -20 -7 -20 -135z"/>
<path d="M525 378 c-6 -19 -45 -231 -45 -246 0 -23 34 -8 40 18 4 18 14 26 32
28 22 3 27 -2 33 -27 5 -22 13 -31 26 -31 24 0 24 -7 -6 140 -14 68 -25 124
-25 126 0 11 -51 2 -55 -8z m44 -140 c0 -10 -6 -18 -14 -18 -16 0 -19 28 -8
70 l7 25 7 -30 c4 -16 7 -38 8 -47z"/>
<path d="M677 383 c-18 -17 -5 -33 28 -33 19 0 35 -4 35 -8 0 -4 -16 -47 -35
-95 -19 -48 -35 -96 -35 -107 0 -19 5 -21 62 -18 50 2 63 6 66 20 3 15 -4 18
-37 18 -23 0 -41 2 -41 5 0 3 16 44 35 92 19 48 35 97 35 110 0 21 -4 23 -53
23 -30 0 -57 -3 -60 -7z"/>
<path d="M844 377 c-2 -7 -3 -67 -2 -133 3 -111 4 -119 23 -119 18 0 21 8 25
69 l5 68 24 -71 c18 -54 29 -71 43 -71 17 0 18 11 18 136 0 124 -2 135 -17
132 -15 -3 -19 -17 -23 -73 l-5 -69 -23 72 c-18 57 -27 72 -43 72 -11 0 -22
-6 -25 -13z"/>
<path d="M1047 383 c-4 -3 -7 -64 -7 -135 l0 -129 57 3 c46 2 59 7 61 20 3 15
-4 18 -37 18 l-41 0 0 40 c0 38 2 40 30 40 23 0 30 4 30 20 0 16 -7 20 -30 20
-28 0 -30 3 -30 35 0 33 2 35 35 35 28 0 35 4 35 20 0 17 -7 20 -48 20 -27 0
-52 -3 -55 -7z"/>
</g>
</svg>
